<svg width="60" height="60" viewBox="0 0 60 60" fill="none" xmlns="http://www.w3.org/2000/svg">
<rect width="60" height="60" fill="#4D7485"/>
<path d="M48.5 31C48.7761 31 49 30.7761 49 30.5C49 30.2239 48.7761 30 48.5 30V31ZM10.6464 30.1464C10.4512 30.3417 10.4512 30.6583 10.6464 30.8536L13.8284 34.0355C14.0237 34.2308 14.3403 34.2308 14.5355 34.0355C14.7308 33.8403 14.7308 33.5237 14.5355 33.3284L11.7071 30.5L14.5355 27.6716C14.7308 27.4763 14.7308 27.1597 14.5355 26.9645C14.3403 26.7692 14.0237 26.7692 13.8284 26.9645L10.6464 30.1464ZM48.5 30L11 30V31L48.5 31V30Z" fill="white"/>
</svg>
