<svg width="60" height="60" viewBox="0 0 60 60" fill="none" xmlns="http://www.w3.org/2000/svg">
<rect width="60" height="60" fill="#789DAD"/>
<path d="M11 30C10.7239 30 10.5 30.2239 10.5 30.5C10.5 30.7761 10.7239 31 11 31V30ZM48.8536 30.8536C49.0488 30.6583 49.0488 30.3417 48.8536 30.1464L45.6716 26.9645C45.4763 26.7692 45.1597 26.7692 44.9645 26.9645C44.7692 27.1597 44.7692 27.4763 44.9645 27.6716L47.7929 30.5L44.9645 33.3284C44.7692 33.5237 44.7692 33.8403 44.9645 34.0355C45.1597 34.2308 45.4763 34.2308 45.6716 34.0355L48.8536 30.8536ZM11 31H48.5V30H11V31Z" fill="white"/>
</svg>
