<svg width="132" height="122" viewBox="0 0 132 122" fill="none" xmlns="http://www.w3.org/2000/svg">
<path d="M47 118V97C47 91 47.5 89.875 54.1538 89.875H61C67 89.875 68.1538 91 68.1538 97V118M68.1538 118H99.3846V7.45167M68.1538 118H118.462V53.0833M68.1538 118H128M68.1538 118H13.5385M99.3846 7.45167L108.923 4M99.3846 7.45167L32.6154 31.6387M118.462 53.0833L99.3846 46.75M118.462 53.0833L128 56.25M4 118H13.5385M13.5385 118V4H32.6154V31.6387M4 42L32.6154 31.6387" stroke="#4D7485" stroke-width="7" stroke-linecap="round" stroke-linejoin="round"/>
<rect x="22" y="44" width="12" height="12" rx="2" fill="#4D7485"/>
<rect x="22" y="64" width="12" height="12" rx="2" fill="#4D7485"/>
<rect x="41" y="38" width="12" height="12" rx="2" fill="#4D7485"/>
<rect x="41" y="58" width="12" height="12" rx="2" fill="#4D7485"/>
<rect x="60" y="31" width="12" height="12" rx="2" fill="#4D7485"/>
<rect x="60" y="51" width="12" height="12" rx="2" fill="#4D7485"/>
<rect x="79" y="25" width="12" height="12" rx="2" fill="#4D7485"/>
<rect x="79" y="46" width="12" height="12" rx="2" fill="#4D7485"/>
<rect x="79" y="66" width="12" height="12" rx="2" fill="#4D7485"/>
</svg>
