<svg width="107" height="114" viewBox="0 0 107 114" fill="none" xmlns="http://www.w3.org/2000/svg">
<path d="M105.187 0.533541C105.703 0.852704 106.129 1.29838 106.425 1.82833C106.72 2.35827 106.875 2.95492 106.876 3.56169V110.437C106.876 111.382 106.5 112.288 105.832 112.957C105.164 113.625 104.258 114 103.313 114H81.9381C80.9933 114 80.0871 113.625 79.419 112.957C78.7509 112.288 78.3756 111.382 78.3756 110.437V99.7499H71.2505V110.437C71.2505 111.382 70.8752 112.288 70.2071 112.957C69.539 113.625 68.6328 114 67.688 114H3.56253C2.61769 114 1.71154 113.625 1.04344 112.957C0.375337 112.288 0 111.382 0 110.437V71.2497C0.000567487 70.5023 0.236182 69.774 0.673495 69.1679C1.11081 68.5618 1.72767 68.1086 2.43677 67.8724L42.7503 54.4346V32.0619C42.7503 31.4008 42.9343 30.7528 43.2816 30.1904C43.6289 29.6279 44.1258 29.1731 44.7168 28.877L101.717 0.37679C102.261 0.104655 102.865 -0.0238077 103.473 0.00363007C104.08 0.0310678 104.67 0.213493 105.187 0.533541ZM42.7503 61.9444L7.12505 73.8147V106.875H42.7503V61.9444ZM49.8754 106.875H64.1255V96.1874C64.1255 95.2425 64.5008 94.3364 65.1689 93.6683C65.837 93.0002 66.7432 92.6248 67.688 92.6248H81.9381C82.8829 92.6248 83.7891 93.0002 84.4572 93.6683C85.1253 94.3364 85.5006 95.2425 85.5006 96.1874V106.875H99.7507V9.32586L49.8754 34.2635V106.875Z" fill="#4D7485"/>
<path d="M14.2501 79.8755C14.2501 79.0471 14.9217 78.3755 15.7501 78.3755H19.8752C20.7036 78.3755 21.3752 79.0471 21.3752 79.8755V84.0006C21.3752 84.829 20.7036 85.5006 19.8752 85.5006H15.7501C14.9217 85.5006 14.2501 84.829 14.2501 84.0006V79.8755ZM28.5002 79.8755C28.5002 79.0471 29.1718 78.3755 30.0002 78.3755H34.1253C34.9537 78.3755 35.6253 79.0471 35.6253 79.8755V84.0006C35.6253 84.829 34.9537 85.5006 34.1253 85.5006H30.0002C29.1718 85.5006 28.5002 84.829 28.5002 84.0006V79.8755ZM14.2501 94.1256C14.2501 93.2972 14.9217 92.6256 15.7501 92.6256H19.8752C20.7036 92.6256 21.3752 93.2972 21.3752 94.1256V98.2507C21.3752 99.0791 20.7036 99.7507 19.8752 99.7507H15.7501C14.9217 99.7507 14.2501 99.0791 14.2501 98.2507V94.1256ZM28.5002 94.1256C28.5002 93.2972 29.1718 92.6256 30.0002 92.6256H34.1253C34.9537 92.6256 35.6253 93.2972 35.6253 94.1256V98.2507C35.6253 99.0791 34.9537 99.7507 34.1253 99.7507H30.0002C29.1718 99.7507 28.5002 99.0791 28.5002 98.2507V94.1256ZM57.0004 65.6254C57.0004 64.797 57.672 64.1254 58.5004 64.1254H62.6255C63.4539 64.1254 64.1255 64.797 64.1255 65.6254V69.7505C64.1255 70.5789 63.4539 71.2505 62.6255 71.2505H58.5004C57.672 71.2505 57.0004 70.5789 57.0004 69.7505V65.6254ZM71.2505 65.6254C71.2505 64.797 71.9221 64.1254 72.7505 64.1254H76.8756C77.704 64.1254 78.3756 64.797 78.3756 65.6254V69.7505C78.3756 70.5789 77.704 71.2505 76.8756 71.2505H72.7505C71.9221 71.2505 71.2505 70.5789 71.2505 69.7505V65.6254ZM57.0004 79.8755C57.0004 79.0471 57.672 78.3755 58.5004 78.3755H62.6255C63.4539 78.3755 64.1255 79.0471 64.1255 79.8755V84.0006C64.1255 84.829 63.4539 85.5006 62.6255 85.5006H58.5004C57.672 85.5006 57.0004 84.829 57.0004 84.0006V79.8755ZM71.2505 79.8755C71.2505 79.0471 71.9221 78.3755 72.7505 78.3755H76.8756C77.704 78.3755 78.3756 79.0471 78.3756 79.8755V84.0006C78.3756 84.829 77.704 85.5006 76.8756 85.5006H72.7505C71.9221 85.5006 71.2505 84.829 71.2505 84.0006V79.8755ZM85.5006 65.6254C85.5006 64.797 86.1722 64.1254 87.0006 64.1254H91.1257C91.9541 64.1254 92.6257 64.797 92.6257 65.6254V69.7505C92.6257 70.5789 91.9541 71.2505 91.1257 71.2505H87.0006C86.1722 71.2505 85.5006 70.5789 85.5006 69.7505V65.6254ZM85.5006 79.8755C85.5006 79.0471 86.1722 78.3755 87.0006 78.3755H91.1257C91.9541 78.3755 92.6257 79.0471 92.6257 79.8755V84.0006C92.6257 84.829 91.9541 85.5006 91.1257 85.5006H87.0006C86.1722 85.5006 85.5006 84.829 85.5006 84.0006V79.8755ZM57.0004 51.3753C57.0004 50.5469 57.672 49.8753 58.5004 49.8753H62.6255C63.4539 49.8753 64.1255 50.5469 64.1255 51.3753V55.5004C64.1255 56.3288 63.4539 57.0004 62.6255 57.0004H58.5004C57.672 57.0004 57.0004 56.3288 57.0004 55.5004V51.3753ZM71.2505 51.3753C71.2505 50.5469 71.9221 49.8753 72.7505 49.8753H76.8756C77.704 49.8753 78.3756 50.5469 78.3756 51.3753V55.5004C78.3756 56.3288 77.704 57.0004 76.8756 57.0004H72.7505C71.9221 57.0004 71.2505 56.3288 71.2505 55.5004V51.3753ZM85.5006 51.3753C85.5006 50.5469 86.1722 49.8753 87.0006 49.8753H91.1257C91.9541 49.8753 92.6257 50.5469 92.6257 51.3753V55.5004C92.6257 56.3288 91.9541 57.0004 91.1257 57.0004H87.0006C86.1722 57.0004 85.5006 56.3288 85.5006 55.5004V51.3753ZM57.0004 37.1252C57.0004 36.2968 57.672 35.6252 58.5004 35.6252H62.6255C63.4539 35.6252 64.1255 36.2968 64.1255 37.1252V41.2503C64.1255 42.0787 63.4539 42.7503 62.6255 42.7503H58.5004C57.672 42.7503 57.0004 42.0787 57.0004 41.2503V37.1252ZM71.2505 37.1252C71.2505 36.2968 71.9221 35.6252 72.7505 35.6252H76.8756C77.704 35.6252 78.3756 36.2968 78.3756 37.1252V41.2503C78.3756 42.0787 77.704 42.7503 76.8756 42.7503H72.7505C71.9221 42.7503 71.2505 42.0787 71.2505 41.2503V37.1252ZM85.5006 37.1252C85.5006 36.2968 86.1722 35.6252 87.0006 35.6252H91.1257C91.9541 35.6252 92.6257 36.2968 92.6257 37.1252V41.2503C92.6257 42.0787 91.9541 42.7503 91.1257 42.7503H87.0006C86.1722 42.7503 85.5006 42.0787 85.5006 41.2503V37.1252ZM85.5006 22.8751C85.5006 22.0467 86.1722 21.3751 87.0006 21.3751H91.1257C91.9541 21.3751 92.6257 22.0467 92.6257 22.8751V27.0002C92.6257 27.8286 91.9541 28.5002 91.1257 28.5002H87.0006C86.1722 28.5002 85.5006 27.8286 85.5006 27.0002V22.8751Z" fill="#4D7485"/>
</svg>
