<svg width="90" height="114" viewBox="0 0 90 114" fill="none" xmlns="http://www.w3.org/2000/svg">
<path d="M24.5455 83.4643V87.5357C24.5455 88.0871 24.343 88.5642 23.9382 88.9671C23.5334 89.37 23.054 89.5714 22.5 89.5714H18.4091C17.8551 89.5714 17.3757 89.37 16.9709 88.9671C16.5661 88.5642 16.3636 88.0871 16.3636 87.5357V83.4643C16.3636 82.9129 16.5661 82.4358 16.9709 82.0329C17.3757 81.63 17.8551 81.4286 18.4091 81.4286H22.5C23.054 81.4286 23.5334 81.63 23.9382 82.0329C24.343 82.4358 24.5455 82.9129 24.5455 83.4643ZM24.5455 67.1786V71.25C24.5455 71.8013 24.343 72.2785 23.9382 72.6814C23.5334 73.0843 23.054 73.2857 22.5 73.2857H18.4091C17.8551 73.2857 17.3757 73.0843 16.9709 72.6814C16.5661 72.2785 16.3636 71.8013 16.3636 71.25V67.1786C16.3636 66.6272 16.5661 66.1501 16.9709 65.7472C17.3757 65.3443 17.8551 65.1429 18.4091 65.1429H22.5C23.054 65.1429 23.5334 65.3443 23.9382 65.7472C24.343 66.1501 24.5455 66.6272 24.5455 67.1786ZM40.9091 67.1786V71.25C40.9091 71.8013 40.7067 72.2785 40.3018 72.6814C39.897 73.0843 39.4176 73.2857 38.8636 73.2857H34.7727C34.2188 73.2857 33.7393 73.0843 33.3345 72.6814C32.9297 72.2785 32.7273 71.8013 32.7273 71.25V67.1786C32.7273 66.6272 32.9297 66.1501 33.3345 65.7472C33.7393 65.3443 34.2188 65.1429 34.7727 65.1429H38.8636C39.4176 65.1429 39.897 65.3443 40.3018 65.7472C40.7067 66.1501 40.9091 66.6272 40.9091 67.1786ZM24.5455 50.8929V54.9643C24.5455 55.5156 24.343 55.9927 23.9382 56.3956C23.5334 56.7985 23.054 57 22.5 57H18.4091C17.8551 57 17.3757 56.7985 16.9709 56.3956C16.5661 55.9927 16.3636 55.5156 16.3636 54.9643V50.8929C16.3636 50.3415 16.5661 49.8644 16.9709 49.4615C17.3757 49.0586 17.8551 48.8571 18.4091 48.8571H22.5C23.054 48.8571 23.5334 49.0586 23.9382 49.4615C24.343 49.8644 24.5455 50.3415 24.5455 50.8929ZM73.6364 83.4643V87.5357C73.6364 88.0871 73.434 88.5642 73.0291 88.9671C72.6243 89.37 72.1449 89.5714 71.5909 89.5714H67.5C66.946 89.5714 66.4666 89.37 66.0618 88.9671C65.657 88.5642 65.4545 88.0871 65.4545 87.5357V83.4643C65.4545 82.9129 65.657 82.4358 66.0618 82.0329C66.4666 81.63 66.946 81.4286 67.5 81.4286H71.5909C72.1449 81.4286 72.6243 81.63 73.0291 82.0329C73.434 82.4358 73.6364 82.9129 73.6364 83.4643ZM57.2727 67.1786V71.25C57.2727 71.8013 57.0703 72.2785 56.6655 72.6814C56.2607 73.0843 55.7812 73.2857 55.2273 73.2857H51.1364C50.5824 73.2857 50.103 73.0843 49.6982 72.6814C49.2933 72.2785 49.0909 71.8013 49.0909 71.25V67.1786C49.0909 66.6272 49.2933 66.1501 49.6982 65.7472C50.103 65.3443 50.5824 65.1429 51.1364 65.1429H55.2273C55.7812 65.1429 56.2607 65.3443 56.6655 65.7472C57.0703 66.1501 57.2727 66.6272 57.2727 67.1786ZM40.9091 50.8929V54.9643C40.9091 55.5156 40.7067 55.9927 40.3018 56.3956C39.897 56.7985 39.4176 57 38.8636 57H34.7727C34.2188 57 33.7393 56.7985 33.3345 56.3956C32.9297 55.9927 32.7273 55.5156 32.7273 54.9643V50.8929C32.7273 50.3415 32.9297 49.8644 33.3345 49.4615C33.7393 49.0586 34.2188 48.8571 34.7727 48.8571H38.8636C39.4176 48.8571 39.897 49.0586 40.3018 49.4615C40.7067 49.8644 40.9091 50.3415 40.9091 50.8929ZM24.5455 34.6071V38.6786C24.5455 39.2299 24.343 39.707 23.9382 40.1099C23.5334 40.5128 23.054 40.7143 22.5 40.7143H18.4091C17.8551 40.7143 17.3757 40.5128 16.9709 40.1099C16.5661 39.707 16.3636 39.2299 16.3636 38.6786V34.6071C16.3636 34.0558 16.5661 33.5787 16.9709 33.1758C17.3757 32.7729 17.8551 32.5714 18.4091 32.5714H22.5C23.054 32.5714 23.5334 32.7729 23.9382 33.1758C24.343 33.5787 24.5455 34.0558 24.5455 34.6071ZM73.6364 67.1786V71.25C73.6364 71.8013 73.434 72.2785 73.0291 72.6814C72.6243 73.0843 72.1449 73.2857 71.5909 73.2857H67.5C66.946 73.2857 66.4666 73.0843 66.0618 72.6814C65.657 72.2785 65.4545 71.8013 65.4545 71.25V67.1786C65.4545 66.6272 65.657 66.1501 66.0618 65.7472C66.4666 65.3443 66.946 65.1429 67.5 65.1429H71.5909C72.1449 65.1429 72.6243 65.3443 73.0291 65.7472C73.434 66.1501 73.6364 66.6272 73.6364 67.1786ZM57.2727 50.8929V54.9643C57.2727 55.5156 57.0703 55.9927 56.6655 56.3956C56.2607 56.7985 55.7812 57 55.2273 57H51.1364C50.5824 57 50.103 56.7985 49.6982 56.3956C49.2933 55.9927 49.0909 55.5156 49.0909 54.9643V50.8929C49.0909 50.3415 49.2933 49.8644 49.6982 49.4615C50.103 49.0586 50.5824 48.8571 51.1364 48.8571H55.2273C55.7812 48.8571 56.2607 49.0586 56.6655 49.4615C57.0703 49.8644 57.2727 50.3415 57.2727 50.8929ZM40.9091 34.6071V38.6786C40.9091 39.2299 40.7067 39.707 40.3018 40.1099C39.897 40.5128 39.4176 40.7143 38.8636 40.7143H34.7727C34.2188 40.7143 33.7393 40.5128 33.3345 40.1099C32.9297 39.707 32.7273 39.2299 32.7273 38.6786V34.6071C32.7273 34.0558 32.9297 33.5787 33.3345 33.1758C33.7393 32.7729 34.2188 32.5714 34.7727 32.5714H38.8636C39.4176 32.5714 39.897 32.7729 40.3018 33.1758C40.7067 33.5787 40.9091 34.0558 40.9091 34.6071ZM24.5455 18.3214V22.3929C24.5455 22.9442 24.343 23.4213 23.9382 23.8242C23.5334 24.2271 23.054 24.4286 22.5 24.4286H18.4091C17.8551 24.4286 17.3757 24.2271 16.9709 23.8242C16.5661 23.4213 16.3636 22.9442 16.3636 22.3929V18.3214C16.3636 17.7701 16.5661 17.293 16.9709 16.8901C17.3757 16.4872 17.8551 16.2857 18.4091 16.2857H22.5C23.054 16.2857 23.5334 16.4872 23.9382 16.8901C24.343 17.293 24.5455 17.7701 24.5455 18.3214ZM73.6364 50.8929V54.9643C73.6364 55.5156 73.434 55.9927 73.0291 56.3956C72.6243 56.7985 72.1449 57 71.5909 57H67.5C66.946 57 66.4666 56.7985 66.0618 56.3956C65.657 55.9927 65.4545 55.5156 65.4545 54.9643V50.8929C65.4545 50.3415 65.657 49.8644 66.0618 49.4615C66.4666 49.0586 66.946 48.8571 67.5 48.8571H71.5909C72.1449 48.8571 72.6243 49.0586 73.0291 49.4615C73.434 49.8644 73.6364 50.3415 73.6364 50.8929ZM57.2727 34.6071V38.6786C57.2727 39.2299 57.0703 39.707 56.6655 40.1099C56.2607 40.5128 55.7812 40.7143 55.2273 40.7143H51.1364C50.5824 40.7143 50.103 40.5128 49.6982 40.1099C49.2933 39.707 49.0909 39.2299 49.0909 38.6786V34.6071C49.0909 34.0558 49.2933 33.5787 49.6982 33.1758C50.103 32.7729 50.5824 32.5714 51.1364 32.5714H55.2273C55.7812 32.5714 56.2607 32.7729 56.6655 33.1758C57.0703 33.5787 57.2727 34.0558 57.2727 34.6071ZM40.9091 18.3214V22.3929C40.9091 22.9442 40.7067 23.4213 40.3018 23.8242C39.897 24.2271 39.4176 24.4286 38.8636 24.4286H34.7727C34.2188 24.4286 33.7393 24.2271 33.3345 23.8242C32.9297 23.4213 32.7273 22.9442 32.7273 22.3929V18.3214C32.7273 17.7701 32.9297 17.293 33.3345 16.8901C33.7393 16.4872 34.2188 16.2857 34.7727 16.2857H38.8636C39.4176 16.2857 39.897 16.4872 40.3018 16.8901C40.7067 17.293 40.9091 17.7701 40.9091 18.3214ZM73.6364 34.6071V38.6786C73.6364 39.2299 73.434 39.707 73.0291 40.1099C72.6243 40.5128 72.1449 40.7143 71.5909 40.7143H67.5C66.946 40.7143 66.4666 40.5128 66.0618 40.1099C65.657 39.707 65.4545 39.2299 65.4545 38.6786V34.6071C65.4545 34.0558 65.657 33.5787 66.0618 33.1758C66.4666 32.7729 66.946 32.5714 67.5 32.5714H71.5909C72.1449 32.5714 72.6243 32.7729 73.0291 33.1758C73.434 33.5787 73.6364 34.0558 73.6364 34.6071ZM57.2727 18.3214V22.3929C57.2727 22.9442 57.0703 23.4213 56.6655 23.8242C56.2607 24.2271 55.7812 24.4286 55.2273 24.4286H51.1364C50.5824 24.4286 50.103 24.2271 49.6982 23.8242C49.2933 23.4213 49.0909 22.9442 49.0909 22.3929V18.3214C49.0909 17.7701 49.2933 17.293 49.6982 16.8901C50.103 16.4872 50.5824 16.2857 51.1364 16.2857H55.2273C55.7812 16.2857 56.2607 16.4872 56.6655 16.8901C57.0703 17.293 57.2727 17.7701 57.2727 18.3214ZM73.6364 18.3214V22.3929C73.6364 22.9442 73.434 23.4213 73.0291 23.8242C72.6243 24.2271 72.1449 24.4286 71.5909 24.4286H67.5C66.946 24.4286 66.4666 24.2271 66.0618 23.8242C65.657 23.4213 65.4545 22.9442 65.4545 22.3929V18.3214C65.4545 17.7701 65.657 17.293 66.0618 16.8901C66.4666 16.4872 66.946 16.2857 67.5 16.2857H71.5909C72.1449 16.2857 72.6243 16.4872 73.0291 16.8901C73.434 17.293 73.6364 17.7701 73.6364 18.3214ZM57.2727 105.857H81.8182V8.14286H8.18182V105.857H32.7273V91.6071C32.7273 91.0558 32.9297 90.5787 33.3345 90.1758C33.7393 89.7729 34.2188 89.5714 34.7727 89.5714H55.2273C55.7812 89.5714 56.2607 89.7729 56.6655 90.1758C57.0703 90.5787 57.2727 91.0558 57.2727 91.6071V105.857ZM90 4.07143V109.929C90 111.031 89.5952 111.985 88.7855 112.791C87.9758 113.597 87.017 114 85.9091 114H4.09091C2.98295 114 2.02415 113.597 1.21449 112.791C0.40483 111.985 0 111.031 0 109.929V4.07143C0 2.96875 0.40483 2.01451 1.21449 1.20871C2.02415 0.402902 2.98295 0 4.09091 0H85.9091C87.017 0 87.9758 0.402902 88.7855 1.20871C89.5952 2.01451 90 2.96875 90 4.07143Z" fill="#4D7485"/>
</svg>
