<svg width="26" height="25" viewBox="0 0 26 25" fill="none" xmlns="http://www.w3.org/2000/svg">
<path d="M13 0C5.824 0 0 5.6 0 12.5C0 19.4 5.824 25 13 25C20.176 25 26 19.4 26 12.5C26 5.6 20.176 0 13 0ZM19.032 8.5C18.837 10.475 17.992 15.275 17.563 17.4875C17.381 18.425 17.017 18.7375 16.679 18.775C15.925 18.8375 15.353 18.3 14.625 17.8375C13.481 17.1125 12.831 16.6625 11.726 15.9625C10.439 15.15 11.271 14.7 12.012 13.975C12.207 13.7875 15.535 10.875 15.6 10.6125C15.609 10.5727 15.6078 10.5315 15.5965 10.4923C15.5852 10.453 15.5641 10.4171 15.535 10.3875C15.457 10.325 15.353 10.35 15.262 10.3625C15.145 10.3875 13.325 11.55 9.776 13.85C9.256 14.1875 8.788 14.3625 8.372 14.35C7.904 14.3375 7.02 14.1 6.357 13.8875C5.538 13.6375 4.901 13.5 4.953 13.0625C4.979 12.8375 5.304 12.6125 5.915 12.375C9.711 10.7875 12.233 9.7375 13.494 9.2375C17.108 7.7875 17.849 7.5375 18.343 7.5375C18.447 7.5375 18.694 7.5625 18.85 7.6875C18.98 7.7875 19.019 7.925 19.032 8.025C19.019 8.1 19.045 8.325 19.032 8.5Z" fill="#4D7485"/>
</svg>
