<svg width="24" height="26" viewBox="0 0 24 26" fill="none" xmlns="http://www.w3.org/2000/svg">
<path fill-rule="evenodd" clip-rule="evenodd" d="M18.0989 0.669874C14.0821 -0.223291 9.91666 -0.223291 5.89988 0.669874L5.46707 0.765124C4.3372 1.01641 3.29947 1.57435 2.46917 2.37696C1.63887 3.17958 1.0485 4.19545 0.76364 5.31173C-0.254547 9.30274 -0.254547 13.4835 0.76364 17.4745C1.03529 18.5391 1.58509 19.5133 2.35728 20.2984C3.12948 21.0835 4.09662 21.6515 5.16066 21.9449L5.75433 25.4704C5.77328 25.5824 5.82206 25.6872 5.89558 25.7741C5.9691 25.8609 6.06468 25.9265 6.17236 25.9641C6.28005 26.0018 6.39589 26.01 6.50785 25.9879C6.6198 25.9658 6.72376 25.9143 6.8089 25.8387L10.2956 22.7361C12.913 22.895 15.5399 22.6868 18.0989 22.1176L18.533 22.0224C19.6629 21.7711 20.7006 21.2132 21.5309 20.4106C22.3612 19.6079 22.9516 18.5921 23.2364 17.4758C24.2545 13.4848 24.2545 9.30402 23.2364 5.313C22.9515 4.19656 22.3609 3.18058 21.5304 2.37795C20.6998 1.57532 19.6618 1.01747 18.5317 0.766394L18.0989 0.669874ZM6.97743 5.20886C6.74015 5.1745 6.49819 5.22201 6.29183 5.34348H6.27396C5.79519 5.62288 5.36366 5.97467 4.99596 6.38869C4.68955 6.74048 4.52358 7.09608 4.48017 7.43898C4.45463 7.64218 4.47251 7.84792 4.53251 8.04223L4.55549 8.05493C4.90021 9.06204 5.34961 10.031 5.8986 10.9429C6.60648 12.2237 7.47759 13.4082 8.49034 14.4672L8.52098 14.5103L8.5695 14.5459L8.59886 14.5802L8.63461 14.6107C9.70288 15.6211 10.8965 16.4918 12.1864 17.2015C13.6611 18.0003 14.556 18.3775 15.0935 18.535V18.5426C15.2506 18.5909 15.3936 18.6124 15.5378 18.6124C15.9956 18.5788 16.4289 18.3937 16.7686 18.0867C17.1835 17.7209 17.5346 17.2904 17.8078 16.8116V16.8027C18.0645 16.3201 17.9776 15.8654 17.6074 15.5568C16.8637 14.9104 16.0595 14.3363 15.2059 13.8423C14.6339 13.5337 14.053 13.7204 13.8181 14.0328L13.3163 14.6627C13.0584 14.9752 12.5912 14.932 12.5912 14.932L12.5784 14.9396C9.09168 14.0544 8.16095 10.5429 8.16095 10.5429C8.16095 10.5429 8.11754 10.0653 8.44055 9.8215L9.06869 9.31858C9.37 9.07474 9.57938 8.49816 9.25637 7.9292C8.76305 7.07926 8.18705 6.27956 7.53663 5.5416C7.39477 5.36792 7.19583 5.24963 6.97488 5.20759L6.97743 5.20886ZM12.8682 3.68232C12.6989 3.68232 12.5365 3.74922 12.4168 3.8683C12.2971 3.98739 12.2298 4.1489 12.2298 4.31732C12.2298 4.48573 12.2971 4.64724 12.4168 4.76633C12.5365 4.88541 12.6989 4.95232 12.8682 4.95232C14.4833 4.95232 15.8238 5.47683 16.8848 6.48267C17.4299 7.03258 17.8551 7.68409 18.1334 8.39783C18.413 9.11284 18.5407 9.87611 18.5075 10.6406C18.504 10.724 18.517 10.8073 18.5458 10.8857C18.5746 10.9641 18.6187 11.036 18.6755 11.0975C18.7902 11.2216 18.9497 11.2952 19.119 11.3023C19.2883 11.3094 19.4535 11.2493 19.5783 11.1352C19.703 11.0211 19.7771 10.8624 19.7842 10.694C19.8238 9.75353 19.6669 8.81513 19.3233 7.93809C18.9782 7.05688 18.4551 6.25549 17.7861 5.58351L17.7734 5.57081C16.4571 4.31986 14.7909 3.68232 12.8682 3.68232ZM12.8248 5.7702C12.6555 5.7702 12.4931 5.8371 12.3734 5.95618C12.2537 6.07527 12.1864 6.23678 12.1864 6.4052C12.1864 6.57361 12.2537 6.73512 12.3734 6.85421C12.4931 6.97329 12.6555 7.0402 12.8248 7.0402H12.8465C14.0109 7.12275 14.8586 7.50883 15.4523 8.14256C16.0613 8.79534 16.3766 9.60687 16.3524 10.6102C16.3485 10.7786 16.412 10.9416 16.529 11.0635C16.6459 11.1853 16.8067 11.2559 16.9761 11.2598C17.1454 11.2636 17.3093 11.2005 17.4317 11.0841C17.5542 10.9678 17.6252 10.8078 17.6291 10.6394C17.6597 9.32239 17.2333 8.18574 16.3881 7.27896V7.27642C15.5238 6.3544 14.3377 5.86672 12.9103 5.77147L12.8886 5.76893L12.8248 5.7702ZM12.8005 7.89745C12.7151 7.88995 12.629 7.89965 12.5475 7.92597C12.4659 7.9523 12.3905 7.9947 12.3257 8.05066C12.261 8.10661 12.2083 8.17497 12.1707 8.25165C12.1331 8.32833 12.1114 8.41175 12.1069 8.49695C12.1025 8.58214 12.1153 8.66736 12.1447 8.74751C12.1741 8.82766 12.2194 8.9011 12.2779 8.96344C12.3365 9.02579 12.407 9.07576 12.4854 9.11037C12.5638 9.14499 12.6484 9.16353 12.7342 9.16491C13.2678 9.19285 13.6087 9.35287 13.8232 9.5675C14.039 9.7834 14.1998 10.1301 14.2292 10.6724C14.2308 10.7576 14.2496 10.8416 14.2845 10.9195C14.3195 10.9973 14.3698 11.0673 14.4325 11.1254C14.4952 11.1835 14.5691 11.2284 14.6496 11.2575C14.7301 11.2866 14.8157 11.2992 14.9013 11.2947C14.9869 11.2902 15.0706 11.2686 15.1476 11.2312C15.2246 11.1938 15.2932 11.1413 15.3494 11.077C15.4056 11.0126 15.4482 10.9377 15.4746 10.8566C15.5011 10.7755 15.5108 10.69 15.5034 10.6051C15.4625 9.84309 15.2225 9.16999 14.7309 8.67469C14.2369 8.17939 13.564 7.93809 12.8005 7.89745Z" fill="#4D7485"/>
</svg>
