<svg width="27" height="27" viewBox="0 0 27 27" fill="none" xmlns="http://www.w3.org/2000/svg">
<path fill-rule="evenodd" clip-rule="evenodd" d="M13.5 0.583374C6.36617 0.583374 0.583374 6.36617 0.583374 13.5C0.583374 15.9413 1.2615 18.2275 2.44079 20.1754L1.28862 24.0917C1.22247 24.3166 1.21812 24.5551 1.27602 24.7822C1.33393 25.0093 1.45195 25.2167 1.61769 25.3824C1.78342 25.5481 1.99075 25.6662 2.21787 25.7241C2.44499 25.782 2.68352 25.7776 2.90837 25.7115L6.82471 24.5593C8.838 25.7774 11.1469 26.4199 13.5 26.4167C20.6339 26.4167 26.4167 20.6339 26.4167 13.5C26.4167 6.36617 20.6339 0.583374 13.5 0.583374ZM10.5783 16.4231C13.1913 19.0348 15.6855 19.3797 16.5665 19.412C17.9059 19.4611 19.2105 18.4381 19.7181 17.251C19.7822 17.1034 19.8055 16.9412 19.7855 16.7815C19.7655 16.6217 19.703 16.4703 19.6045 16.343C18.8966 15.4388 17.9395 14.7891 17.0043 14.1433C16.8091 14.0083 16.5691 13.9541 16.3348 13.9922C16.1005 14.0302 15.89 14.1575 15.7475 14.3474L14.9725 15.5292C14.9318 15.5928 14.8683 15.6383 14.7951 15.6566C14.7218 15.6748 14.6444 15.6644 14.5786 15.6274C14.0529 15.3265 13.2869 14.815 12.7367 14.2647C12.1864 13.7145 11.7059 12.9834 11.436 12.4912C11.4025 12.4287 11.3928 12.3562 11.4087 12.2871C11.4246 12.218 11.4651 12.157 11.5225 12.1154L12.716 11.2293C12.8863 11.0812 12.9962 10.8756 13.0248 10.6517C13.0534 10.4278 12.9987 10.2013 12.871 10.0151C12.2923 9.16779 11.6181 8.09054 10.6403 7.37625C10.5141 7.2848 10.3663 7.22778 10.2114 7.2108C10.0565 7.19381 9.8998 7.21745 9.75679 7.27937C8.56846 7.78829 7.54029 9.09287 7.58937 10.4349C7.62167 11.3158 7.96654 13.81 10.5783 16.4231Z" fill="#4D7485"/>
</svg>
